<svg id="Layer_1" data-name="Layer 1" xmlns="http://www.w3.org/2000/svg" viewBox="0 0 200 43"><defs><style>.cls-1{font-size:9px;font-family:Noway-Medium, Noway;letter-spacing:0.01em;}.cls-2{opacity:0.5;}.cls-3,.cls-5{letter-spacing:0.02em;}.cls-4{opacity:0.8;}.cls-5{opacity:0.4;}</style></defs><title>p1darkArtboard 1</title><path d="M80.78,38.55V33.66h.66v.55a1.29,1.29,0,0,1,1.17-.63,1.63,1.63,0,0,1,1.61,1.83,1.66,1.66,0,0,1-1.63,1.85,1.31,1.31,0,0,1-1.14-.57v1.86h-.68m1.71-4.36a1.25,1.25,0,0,0,0,2.46c.63,0,1-.52,1-1.24a1.08,1.08,0,0,0-1-1.22"/><path d="M88.32,35.41a1.79,1.79,0,1,1-1.79-1.86,1.77,1.77,0,0,1,1.79,1.86m-.7,0a1.1,1.1,0,1,0-1.09,1.25,1.12,1.12,0,0,0,1.09-1.25"/><polygon points="91.81 33.66 92.72 36.3 93.49 33.66 94.21 33.66 93.08 37.16 92.37 37.16 91.44 34.5 90.53 37.16 89.81 37.16 88.66 33.66 89.41 33.66 90.19 36.3 91.11 33.66 91.81 33.66"/><path d="M97.88,36.17a1.59,1.59,0,0,1-1.57,1.11,1.87,1.87,0,0,1-.09-3.72,1.63,1.63,0,0,1,1.68,1.83,1.4,1.4,0,0,1,0,.22H95.26a1,1,0,0,0,1.06,1.06,1,1,0,0,0,1-.71l.59.2m-.69-1.11a.88.88,0,0,0-1-.9.94.94,0,0,0-1,.9Z"/><path d="M100.66,34.35l-.3,0c-.57,0-1,.31-1,1.08v1.75h-.69v-3.5h.67v.61a1.1,1.1,0,0,1,1-.67l.23,0v.73"/><path d="M104.37,36.17a1.59,1.59,0,0,1-1.57,1.11,1.87,1.87,0,0,1-.09-3.72,1.63,1.63,0,0,1,1.68,1.83,1.41,1.41,0,0,1,0,.22h-2.64a1,1,0,0,0,1.06,1.06,1,1,0,0,0,1-.71l.59.2m-.69-1.11a.88.88,0,0,0-1-.9.94.94,0,0,0-1,.9Z"/><path d="M107.65,36.63a1.18,1.18,0,0,1-1.09.63,1.69,1.69,0,0,1-1.66-1.86,1.72,1.72,0,0,1,1.66-1.84,1.08,1.08,0,0,1,1.07.59V31.89h.68v4.62a6,6,0,0,0,0,.65h-.66a3.12,3.12,0,0,1,0-.47v-.06m-1,0c.63,0,1-.55,1-1.27s-.38-1.22-1-1.22-1,.51-1,1.23.37,1.25,1,1.25"/><path d="M111.17,37.16V31.89h.68v2.26a1.27,1.27,0,0,1,1.16-.6,1.62,1.62,0,0,1,1.61,1.83A1.67,1.67,0,0,1,113,37.26a1.24,1.24,0,0,1-1.13-.6v.51h-.68m1.71-3c-.61,0-1,.47-1,1.23s.44,1.25,1,1.25,1-.49,1-1.25-.4-1.23-1-1.23"/><polygon points="115.54 38.63 116.42 36.78 114.91 33.66 115.7 33.66 116.79 36.08 117.84 33.66 118.57 33.66 116.29 38.63 115.54 38.63"/><path d="M127.16,32.69V34c0,1.57-.76,2.42-2.3,2.42h-.73v3.68H122.6V30.27h2.26c1.54,0,2.3.85,2.3,2.42m-3-1V35h.73c.49,0,.76-.22.76-.92V32.59c0-.7-.26-.92-.76-.92Z"/><polygon points="127.73 30.27 129.27 30.27 129.27 38.66 131.8 38.66 131.8 40.06 127.73 40.06 127.73 30.27"/><path d="M133.8,30.27v7.55c0,.7.31,1,.8,1s.8-.25.8-1V30.27h1.46v7.45c0,1.57-.78,2.46-2.29,2.46s-2.29-.89-2.29-2.46V30.27h1.54"/><path d="M140.07,34.6h2.15v3.1c0,1.57-.78,2.46-2.29,2.46a2.15,2.15,0,0,1-2.3-2.46V32.62a2.15,2.15,0,0,1,2.3-2.46c1.51,0,2.29.89,2.29,2.46v1h-1.45V32.52c0-.7-.31-1-.8-1s-.8.27-.8,1v5.29c0,.7.31.95.8.95s.8-.25.8-.95V36h-.7V34.6"/><path d="M147,38.94h-1.21l-.21-1.38h-1.47l-.21,1.38h-1.1L144,31.32h1.75Zm-2.73-2.42h1.15l-.58-3.86Z"/><polygon points="148.51 33.42 148.51 38.94 147.43 38.94 147.43 31.32 148.94 31.32 150.17 35.88 150.17 31.32 151.23 31.32 151.23 38.94 150.01 38.94 148.51 33.42"/><path d="M152,31.32h1.9c1.2,0,1.79.66,1.79,1.88v3.86c0,1.22-.59,1.88-1.79,1.88H152V31.32m1.2,1.09v5.44h.68c.38,0,.61-.19.61-.74v-4c0-.55-.23-.74-.61-.74Z"/><path d="M160.86,32.69V34c0,1.57-.76,2.42-2.3,2.42h-.73v3.68H156.3V30.27h2.26c1.54,0,2.3.85,2.3,2.42m-3-1V35h.73c.49,0,.76-.22.76-.92V32.59c0-.7-.27-.92-.76-.92Z"/><polygon points="161.43 30.27 162.97 30.27 162.97 38.66 165.5 38.66 165.5 40.06 161.43 40.06 161.43 30.27"/><path d="M171,40.06h-1.55l-.27-1.78H167.3L167,40.06h-1.41l1.56-9.79h2.25ZM167.49,37H169l-.74-5Z"/><polygon points="172.34 36.81 170.39 30.27 172 30.27 173.17 34.73 174.35 30.27 175.82 30.27 173.87 36.81 173.87 40.06 172.34 40.06 172.34 36.81"/><path d="M30.23,13.31H3.09a.21.21,0,0,0-.21.19L0,42.77l.05.16L.21,43H4.7l.16-.07L30.39,13.65a.21.21,0,0,0-.15-.34"/><path d="M65.93,42.66,40.39,13.38l-.16-.07H35.75l-.15.07-.05.16,2.88,29.28a.21.21,0,0,0,.21.19H65.78a.21.21,0,0,0,.16-.34"/><polygon points="77.28 17.97 77.28 26.83 75.88 26.83 75.88 17.97 72.72 17.97 72.72 16.67 80.44 16.67 80.44 17.97 77.28 17.97"/><path d="M86.44,24h-4.5l-1.07,2.84h-1.5l4-10.17H85l4,10.17H87.54Zm-4-1.31h3.5l-1.76-4.56Z"/><path d="M93.21,22.68H91.69v4.16H90.27V16.67H94.1a2.94,2.94,0,0,1,3.11,3,2.84,2.84,0,0,1-2.47,2.88l2.42,4.26H95.53l-2.32-4.16m.63-1.26a1.75,1.75,0,1,0,0-3.48H91.69v3.48Z"/><polygon points="102.22 17.97 102.22 26.83 100.81 26.83 100.81 17.97 97.66 17.97 97.66 16.67 105.38 16.67 105.38 17.97 102.22 17.97"/><path d="M106.56,23.36v-6.7H108v6.65a2.26,2.26,0,1,0,4.52,0V16.67h1.41v6.7a3.66,3.66,0,1,1-7.31,0"/><path d="M117.38,22.68v4.16H116V16.67h3.7a3,3,0,1,1,0,6h-2.29m2-1.26c1.22,0,2-.67,2-1.72a1.74,1.74,0,0,0-2-1.76h-2v3.48Z"/><path d="M129.75,24.51h-4.13l-.85,2.32h-2.09l3.9-10.17h2.29l3.87,10.17H130.6Zm-3.47-1.81h2.81l-1.4-3.84Z"/><path d="M133.46,23.23V16.67h2v6.42a1.93,1.93,0,1,0,3.86,0V16.67h2v6.57a3.91,3.91,0,0,1-7.82,0"/><polygon points="147.41 18.55 147.41 26.83 145.41 26.83 145.41 18.55 142.44 18.55 142.44 16.67 150.38 16.67 150.38 18.55 147.41 18.55"/><path d="M156,16.45a5.13,5.13,0,0,1,5.24,5.31,5.23,5.23,0,1,1-10.45,0A5.12,5.12,0,0,1,156,16.45m0,8.67a3.14,3.14,0,0,0,3.18-3.38,3.18,3.18,0,1,0-6.35,0A3.14,3.14,0,0,0,156,25.13"/><path d="M166.5,16.67c2,0,3.1,1.16,3.1,2.74a2.26,2.26,0,0,1-1.48,2.18A2.4,2.4,0,0,1,169.91,24a2.85,2.85,0,0,1-3.14,2.84h-3.93V16.67h3.66m-.3,4.2a1.27,1.27,0,0,0,1.45-1.28c0-.77-.5-1.26-1.46-1.26h-1.39v2.54Zm.2,4.32c1,0,1.53-.5,1.53-1.32a1.32,1.32,0,0,0-1.5-1.36h-1.64v2.68Z"/><path d="M177.51,24.51h-4.13l-.85,2.32h-2.09l3.9-10.17h2.29l3.87,10.17h-2.15ZM174,22.7h2.81l-1.41-3.84Z"/><polygon points="187.74 26.83 187.74 22.62 183.31 22.62 183.31 26.83 181.33 26.83 181.33 16.67 183.31 16.67 183.31 20.75 187.74 20.75 187.74 16.67 189.73 16.67 189.73 26.83 187.74 26.83"/><polygon points="197.92 26.83 193.3 19.62 193.3 26.83 191.32 26.83 191.32 16.67 193.79 16.67 198.02 23.39 198.02 16.67 200 16.67 200 26.83 197.92 26.83"/><path d="M69.63,21.18l-1.52-.33a1.47,1.47,0,0,1-1.3-1.48,1.8,1.8,0,0,1,2-1.69A2.06,2.06,0,0,1,70.9,19.3l1.27-.4a3.21,3.21,0,0,0-3.43-2.45,3.24,3.24,0,0,0-3.35,3,2.81,2.81,0,0,0,2.48,2.78l1.45.32a1.66,1.66,0,0,1,1.52,1.58c0,.89-.69,1.62-2.09,1.62a2.3,2.3,0,0,1-2.42-2.09L65,24.1A3.53,3.53,0,0,0,68.76,27a3.21,3.21,0,0,0,3.51-3,2.93,2.93,0,0,0-2.64-2.85"/><text class="cls-1" transform="translate(0 6.75)"><tspan class="cls-2">MEMBER OF</tspan><tspan class="cls-3" x="47.65" y="0"> </tspan><tspan class="cls-4" x="50.09" y="0">PROGRAM #1</tspan><tspan class="cls-5" x="102.71" y="0"> </tspan><tspan class="cls-2" x="105.15" y="0">OF</tspan></text></svg>